# xmcd
#
# Track frame offsets:
#	150
#	10881
#	28886
#	41671
#	57209
#	72123
#	87125
#	103412
#	115831
#	123111
#	138772
#	149810
#	163244
#
# Disc length: 2398 seconds
# Revision: 0
# Processed by: cddbd v1.5.2PL0 Copyright (c) Steve Scherf et al.
# Submitted via: dBpowerAMP V12.0
#
DISCID=b8095c0d
DTITLE=Lisa Aschmann - The Planets
DYEAR=2002
DGENRE=Country
TTITLE0=Until It Happens To You
TTITLE1=Easy To Love
TTITLE2='Til They Discovered Music
TTITLE3=I Want To Be In Love
TTITLE4=Hurricane
TTITLE5=Lonely
TTITLE6=Great Minds Think Alike
TTITLE7=Little Birds
TTITLE8=You Sexy Dog
TTITLE9=Orange Blossoms
TTITLE10=Loving You Alone
TTITLE11=Ain't We Great?
TTITLE12=Swing City
EXTD=
EXTT0=
EXTT1=
EXTT2=
EXTT3=
EXTT4=
EXTT5=
EXTT6=
EXTT7=
EXTT8=
EXTT9=
EXTT10=
EXTT11=
EXTT12=
PLAYORDER=
